[h264 @ 0x5613f14b9d40] Reinit context to 1920x1088, pix_fmt: yuv420p
Input #0, mov,mp4,m4a,3gp,3g2,mj2, from '/var/www/html/project/media/video/original/YouCut_20240729_194058578.mp4':
  Metadata:
    major_brand     : isom
    minor_version   : 512
    compatible_brands: isomiso2avc1mp41
    encoder         : Lavf58.76.100
  Duration: 00:00:41.70, start: 0.000000, bitrate: 13091 kb/s
    Stream #0:0(und): Video: h264 (Baseline), 1 reference frame (avc1 / 0x31637661), yuv420p(tv, bt709, left), 1920x1080 (1920x1088), 12963 kb/s, SAR 1:1 DAR 16:9, 30.03 fps, 30 tbr, 1000k tbn, 2000k tbc (default)
    Metadata:
      handler_name    : VideoHandler
    Stream #0:1(und): Audio: aac (LC) (mp4a / 0x6134706D), 44100 Hz, stereo, fltp, 126 kb/s (default)
    Metadata:
      handler_name    : SoundHandler
[h264 @ 0x5613f14dfb40] Reinit context to 1280x720, pix_fmt: yuv420p
Input #1, mov,mp4,m4a,3gp,3g2,mj2, from '/var/www/html/project/static/images/templates/Codino.mp4':
  Metadata:
    major_brand     : mp42
    minor_version   : 1
    compatible_brands: isommp41mp42
    creation_time   : 2021-07-11T07:02:58.000000Z
  Duration: 00:00:02.00, start: 0.000000, bitrate: 1007 kb/s
    Stream #1:0(ita): Audio: aac (LC) (mp4a / 0x6134706D), 44100 Hz, stereo, fltp, 102 kb/s (default)
    Metadata:
      creation_time   : 2021-07-11T07:02:58.000000Z
      handler_name    : Core Media Audio
    Stream #1:1(und): Video: h264 (High), 1 reference frame (avc1 / 0x31637661), yuv420p(tv, bt709, progressive, left), 1280x720 [SAR 1:1 DAR 16:9], 813 kb/s, 25 fps, 25 tbr, 25k tbn, 50k tbc (default)
    Metadata:
      creation_time   : 2021-07-11T07:02:58.000000Z
      handler_name    : Core Media Video
[Parsed_scale_0 @ 0x5613f150d8c0] w:1920 h:1080 flags:'bilinear' interl:0
[Parsed_scale_2 @ 0x5613f1587000] w:1920 h:1080 flags:'bilinear' interl:0
Stream mapping:
  Stream #0:0 (h264) -> scale
  Stream #0:1 (aac) -> concat:in0:a0
  Stream #1:0 (aac) -> concat:in1:a0
  Stream #1:1 (h264) -> scale
  concat:out:v0 -> Stream #0:0 (libx264)
  concat:out:a0 -> Stream #0:1 (aac)
Press [q] to stop, [?] for help
[h264 @ 0x5613f151fa40] Reinit context to 1920x1088, pix_fmt: yuv420p
[h264 @ 0x5613f19212c0] Reinit context to 1280x720, pix_fmt: yuv420p
[Parsed_scale_0 @ 0x5613f2e048c0] w:1920 h:1080 flags:'bilinear' interl:0
[Parsed_scale_2 @ 0x5613f2e0cdc0] w:1920 h:1080 flags:'bilinear' interl:0
[graph 0 input from stream 0:0 @ 0x5613f2e10180] w:1920 h:1080 pixfmt:yuv420p tb:1/1000000 fr:1000000/33333 sar:1/1 sws_param:flags=2
[graph 0 input from stream 1:1 @ 0x5613f2e11180] w:1280 h:720 pixfmt:yuv420p tb:1/25000 fr:25/1 sar:1/1 sws_param:flags=2
[graph_0_in_0_1 @ 0x5613f2e12140] tb:1/44100 samplefmt:fltp samplerate:44100 chlayout:0x3
[graph_0_in_1_0 @ 0x5613f2e13280] tb:1/44100 samplefmt:fltp samplerate:44100 chlayout:0x3
[Parsed_scale_0 @ 0x5613f2e048c0] w:1920 h:1080 fmt:yuv420p sar:1/1 -> w:1920 h:1080 fmt:yuv420p sar:1/1 flags:0x2
[Parsed_setsar_1 @ 0x5613f2e0c700] w:1920 h:1080 sar:1/1 dar:16/9 -> sar:1/1 dar:16/9
[Parsed_scale_2 @ 0x5613f2e0cdc0] w:1280 h:720 fmt:yuv420p sar:1/1 -> w:1920 h:1080 fmt:yuv420p sar:1/1 flags:0x2
[Parsed_setsar_3 @ 0x5613f2e0d300] w:1920 h:1080 sar:1/1 dar:16/9 -> sar:1/1 dar:16/9
[libx264 @ 0x5613f15873c0] using SAR=1/1
[libx264 @ 0x5613f15873c0] using cpu capabilities: MMX2 SSE2Fast SSSE3 SSE4.2 AVX FMA3 BMI2 AVX2
[libx264 @ 0x5613f15873c0] profile High, level 4.0
[libx264 @ 0x5613f15873c0] 264 - core 155 r2917 0a84d98 - H.264/MPEG-4 AVC codec - Copyleft 2003-2018 - http://www.videolan.org/x264.html - options: cabac=1 ref=1 deblock=1:0:0 analyse=0x3:0x113 me=hex subme=2 psy=1 psy_rd=1.00:0.00 mixed_ref=0 me_range=16 chroma_me=1 trellis=0 8x8dct=1 cqm=0 deadzone=21,11 fast_pskip=1 chroma_qp_offset=0 threads=24 lookahead_threads=8 sliced_threads=0 nr=0 decimate=1 interlaced=0 bluray_compat=0 constrained_intra=0 bframes=3 b_pyramid=2 b_adapt=1 b_bias=0 direct=1 weightb=1 open_gop=0 weightp=1 keyint=250 keyint_min=25 scenecut=40 intra_refresh=0 rc_lookahead=10 rc=crf mbtree=1 crf=18.0 qcomp=0.60 qpmin=0 qpmax=69 qpstep=4 ip_ratio=1.40 aq=1:1.00
Output #0, mp4, to '/var/www/html/project/media/video/watermarks/YouCut_20240729_194058578.mp4':
  Metadata:
    major_brand     : isom
    minor_version   : 512
    compatible_brands: isomiso2avc1mp41
    encoder         : Lavf58.29.100
    Stream #0:0: Video: h264 (libx264), 1 reference frame (avc1 / 0x31637661), yuv420p(progressive), 1920x1080 [SAR 1:1 DAR 16:9], q=-1--1, 30 fps, 1000k tbn, 30 tbc (default)
    Metadata:
      encoder         : Lavc58.54.100 libx264
    Side data:
      cpb: bitrate max/min/avg: 0/0/0 buffer size: 0 vbv_delay: -1
    Stream #0:1: Audio: aac (LC) (mp4a / 0x6134706D), 44100 Hz, stereo, fltp, delay 1024, 128 kb/s (default)
    Metadata:
      encoder         : Lavc58.54.100 aac
[Parsed_concat_4 @ 0x5613f2e0e180] EOF on in0:v0, 1 streams left in segment.
[Parsed_concat_4 @ 0x5613f2e0e180] EOF on in0:a0, 0 streams left in segment.
[Parsed_concat_4 @ 0x5613f2e0e180] Segment finished at pts=41721915
[Parsed_concat_4 @ 0x5613f2e0e180] EOF on in1:a0, 1 streams left in segment.
[Parsed_concat_4 @ 0x5613f2e0e180] EOF on in1:v0, 0 streams left in segment.
[Parsed_concat_4 @ 0x5613f2e0e180] Segment finished at pts=43740600
No more output streams to write to, finishing.
frame= 1302 fps= 42 q=-1.0 Lsize=   48578kB time=00:00:43.74 bitrate=9096.8kbits/s speed=1.41x    
[AVIOContext @ 0x5613f14b8180] Statistics: 0 seeks, 59 writeouts
video:47849kB audio:683kB subtitle:0kB other streams:0kB global headers:0kB muxing overhead: 0.095596%
Input file #0 (/var/www/html/project/media/video/original/YouCut_20240729_194058578.mp4):
  Input stream #0:0 (video): 1252 packets read (67552604 bytes); 1252 frames decoded; 
  Input stream #0:1 (audio): 1797 packets read (657947 bytes); 1796 frames decoded (1839104 samples); 
  Total: 3049 packets (68210551 bytes) demuxed
Input file #1 (/var/www/html/project/static/images/templates/Codino.mp4):
  Input stream #1:0 (audio): 89 packets read (26579 bytes); 87 frames decoded (89024 samples); 
  Input stream #1:1 (video): 50 packets read (203365 bytes); 50 frames decoded; 
  Total: 139 packets (229944 bytes) demuxed
Output file #0 (/var/www/html/project/media/video/watermarks/YouCut_20240729_194058578.mp4):
  Output stream #0:0 (video): 1302 frames encoded; 1302 packets muxed (48997174 bytes); 
  Output stream #0:1 (audio): 1884 frames encoded (1928956 samples); 1885 packets muxed (699538 bytes); 
  Total: 3187 packets (49696712 bytes) muxed
[AVIOContext @ 0x5613f1521300] Statistics: 2 seeks, 193 writeouts
[libx264 @ 0x5613f15873c0] frame I:20    Avg QP:15.71  size:201165
[libx264 @ 0x5613f15873c0] frame P:583   Avg QP:19.20  size: 54245
[libx264 @ 0x5613f15873c0] frame B:699   Avg QP:22.04  size: 19096
[libx264 @ 0x5613f15873c0] consecutive B-frames: 25.0%  8.4%  5.8% 60.8%
[libx264 @ 0x5613f15873c0] mb I  I16..4: 12.3% 16.6% 71.1%
[libx264 @ 0x5613f15873c0] mb P  I16..4:  3.2%  7.1%  3.1%  P16..4: 39.9% 13.8% 10.3%  0.0%  0.0%    skip:22.6%
[libx264 @ 0x5613f15873c0] mb B  I16..4:  1.2%  2.0%  0.5%  B16..8: 26.2%  8.2%  1.3%  direct:11.6%  skip:49.0%  L0:42.1% L1:34.9% BI:23.0%
[libx264 @ 0x5613f15873c0] 8x8 transform intra:47.2% inter:23.6%
[libx264 @ 0x5613f15873c0] coded y,uvDC,uvAC intra: 64.6% 63.8% 19.6% inter: 19.1% 18.6% 0.7%
[libx264 @ 0x5613f15873c0] i16 v,h,dc,p: 44% 28% 19%  9%
[libx264 @ 0x5613f15873c0] i8 v,h,dc,ddl,ddr,vr,hd,vl,hu: 29% 31% 17%  3%  4%  4%  4%  4%  4%
[libx264 @ 0x5613f15873c0] i4 v,h,dc,ddl,ddr,vr,hd,vl,hu: 26% 25% 11%  5%  7%  7%  7%  7%  6%
[libx264 @ 0x5613f15873c0] i8c dc,h,v,p: 46% 24% 22%  8%
[libx264 @ 0x5613f15873c0] Weighted P-Frames: Y:2.4% UV:0.3%
[libx264 @ 0x5613f15873c0] kb/s:8969.70
[aac @ 0x5613f15209c0] Qavg: 1403.623
[AVIOContext @ 0x5613f14c1080] Statistics: 68304863 bytes read, 2 seeks
[AVIOContext @ 0x5613f14bffc0] Statistics: 1530915 bytes read, 42 seeks
